<?xml version="1.0" encoding="UTF-8" standalone="no" ?>
<!DOCTYPE svg PUBLIC "-//W3C//DTD SVG 1.1//EN" "http://www.w3.org/Graphics/SVG/1.1/DTD/svg11.dtd">
<svg xmlns="http://www.w3.org/2000/svg" xmlns:xlink="http://www.w3.org/1999/xlink" version="1.1" width="100" height="150" viewBox="0 0 1080 1080" xml:space="preserve">
<desc>Created with Fabric.js 5.2.4</desc>
<defs>
</defs>
<g transform="matrix(1 0 0 1 540 540)" id="8a1e2e7f-8198-4ed6-aeff-6fb45090c335"  >
<rect style="stroke: none; stroke-width: 1; stroke-dasharray: none; stroke-linecap: butt; stroke-dashoffset: 0; stroke-linejoin: miter; stroke-miterlimit: 4; fill: rgb(255,255,255); fill-rule: nonzero; opacity: 1; visibility: hidden;" vector-effect="non-scaling-stroke"  x="-540" y="-540" rx="0" ry="0" width="1080" height="1080" />
</g>
<g transform="matrix(1 0 0 1 540 540)" id="1810be96-1dac-48e1-99ac-7d41aa6ef760"  >
</g>
<g transform="matrix(0 -0.92 0.92 0 535.72 539.17)"  >
<g style="" vector-effect="non-scaling-stroke"   >
		<g transform="matrix(1 0 0 1 -41.47 -1.76)"  >
<path style="stroke: none; stroke-width: 1; stroke-dasharray: none; stroke-linecap: butt; stroke-dashoffset: 0; stroke-linejoin: miter; stroke-miterlimit: 4; fill: rgb(0,0,0); fill-rule: nonzero; opacity: 1;" vector-effect="non-scaling-stroke"  transform=" translate(36.47, -346.44)" d="M -45 338.97 L -37.677 338.97 C -36.299 338.97 -35.222 339.31500000000005 -34.477 339.918 C -33.63699999999999 340.618 -33.163 341.641 -33.163 342.868 C -33.163 344.288 -33.745 345.194 -34.928999999999995 345.733 L -34.928999999999995 345.798 C -33.379 346.315 -32.495 347.693 -32.495 349.373 C -32.495 350.967 -33.098 352.216 -34.11 352.96999999999997 C -34.95 353.573 -36.07 353.87499999999994 -37.535 353.87499999999994 L -44.986999999999995 353.87499999999994 L -44.986999999999995 338.97 z M -38.4 344.807 C -37.603 344.807 -37.043 344.377 -37.043 343.493 C -37.043 342.653 -37.646 342.223 -38.421 342.223 L -40.941 342.223 L -40.941 344.786 L -38.401 344.786 z M -38.034 350.579 C -37.150999999999996 350.579 -36.484 350.041 -36.484 349.04900000000004 C -36.484 348.01500000000004 -37.184000000000005 347.51900000000006 -38.056000000000004 347.51900000000006 L -40.94200000000001 347.51900000000006 L -40.94200000000001 350.57700000000006 z M -31.766 338.979 L -27.932 338.979 L -27.932 353.905 L -31.766 353.905 z" stroke-linecap="round" />
</g>
		<g transform="matrix(1 0 0 1 -26.65 0.38)"  >
<path style="stroke: none; stroke-width: 1; stroke-dasharray: none; stroke-linecap: butt; stroke-dashoffset: 0; stroke-linejoin: miter; stroke-miterlimit: 4; fill: rgb(0,0,0); fill-rule: nonzero; opacity: 1;" vector-effect="non-scaling-stroke"  transform=" translate(21.65, -348.58)" d="M -27.167 348.577 C -27.167 345.217 -24.992 342.934 -21.632 342.934 C -18.272000000000002 342.934 -16.14 345.21700000000004 -16.14 348.577 C -16.14 351.957 -18.272000000000002 354.21999999999997 -21.632 354.21999999999997 C -24.992 354.21999999999997 -27.167 351.96 -27.167 348.577 z M -19.93 348.577 C -19.93 346.725 -20.533 345.54 -21.675 345.54 C -22.817 345.54 -23.375 346.70300000000003 -23.375 348.577 C -23.375 350.45099999999996 -22.815 351.614 -21.675 351.614 C -20.533 351.63599999999997 -19.93 350.472 -19.93 348.577 z" stroke-linecap="round" />
</g>
		<g transform="matrix(1 0 0 1 -15.15 0.38)"  >
<path style="stroke: none; stroke-width: 1; stroke-dasharray: none; stroke-linecap: butt; stroke-dashoffset: 0; stroke-linejoin: miter; stroke-miterlimit: 4; fill: rgb(0,0,0); fill-rule: nonzero; opacity: 1;" vector-effect="non-scaling-stroke"  transform=" translate(21.65, -348.58)" d="M -27.167 348.577 C -27.167 345.217 -24.992 342.934 -21.632 342.934 C -18.272000000000002 342.934 -16.14 345.21700000000004 -16.14 348.577 C -16.14 351.957 -18.272000000000002 354.21999999999997 -21.632 354.21999999999997 C -24.992 354.21999999999997 -27.167 351.96 -27.167 348.577 z M -19.93 348.577 C -19.93 346.725 -20.533 345.54 -21.675 345.54 C -22.817 345.54 -23.375 346.70300000000003 -23.375 348.577 C -23.375 350.45099999999996 -22.815 351.614 -21.675 351.614 C -20.533 351.63599999999997 -19.93 350.472 -19.93 348.577 z" stroke-linecap="round" />
</g>
		<g transform="matrix(1 0 0 1 15.16 -1.6)"  >
<path style="stroke: none; stroke-width: 1; stroke-dasharray: none; stroke-linecap: butt; stroke-dashoffset: 0; stroke-linejoin: miter; stroke-miterlimit: 4; fill: rgb(0,0,0); fill-rule: nonzero; opacity: 1;" vector-effect="non-scaling-stroke"  transform=" translate(-20.16, -346.6)" d="M -3.863 343.236 L -0.3 343.236 L -0.3 344.83 L -0.235 344.83 C 0.46499999999999997 343.58 1.4449999999999998 342.913 2.9650000000000003 342.913 C 4.300000000000001 342.913 5.313000000000001 343.581 5.83 344.743 L 5.8950000000000005 344.743 C 6.757000000000001 343.343 7.898000000000001 342.913 9.190000000000001 342.913 C 11.667000000000002 342.913 12.722000000000001 344.743 12.722000000000001 347.177 L 12.722000000000001 353.89700000000005 L 8.974 353.89700000000005 L 8.974 347.8670000000001 C 8.974 346.76900000000006 8.629 346.06700000000006 7.682 346.06700000000006 C 6.756 346.06700000000006 6.282 346.9290000000001 6.282 348.09200000000004 L 6.282 353.90700000000004 L 2.577 353.90700000000004 L 2.577 347.87700000000007 C 2.577 346.77900000000005 2.232 346.07700000000006 1.285 346.07700000000006 C 0.3589999999999999 346.07700000000006 -0.11499999999999999 346.9390000000001 -0.11499999999999999 348.10200000000003 L -0.11499999999999999 353.91700000000003 L -3.8630000000000004 353.91700000000003 L -3.8630000000000004 343.257 z M 17.46 352.496 L 17.417 352.496 L 17.417 353.87399999999997 L 13.863000000000001 353.87399999999997 L 13.863000000000001 338.95 L 17.6 338.95 L 17.6 344.334 L 17.665000000000003 344.334 C 18.365000000000002 343.408 19.323000000000004 342.914 20.702 342.914 C 23.372 342.914 24.922 345.32599999999996 24.922 348.534 C 24.922 352.152 23.242 354.242 20.464 354.242 C 19.279 354.242 18.093999999999998 353.682 17.448999999999998 352.497 z M 21.1 348.512 C 21.1 346.789 20.475 345.692 19.334000000000003 345.692 C 18.193000000000005 345.692 17.460000000000004 346.79 17.460000000000004 348.512 C 17.460000000000004 350.212 18.192000000000004 351.332 19.334000000000003 351.332 C 20.476000000000003 351.332 21.1 350.234 21.1 348.512 z M 25.342000000000002 348.534 C 25.342000000000002 345.217 27.539 342.891 30.726000000000003 342.891 C 32.32 342.891 33.526 343.386 34.474000000000004 344.269 C 35.702000000000005 345.454 36.262 347.327 36.219 349.503 L 29.069000000000003 349.503 C 29.219 350.83799999999997 29.866000000000003 351.506 30.986000000000004 351.506 C 31.632000000000005 351.506 32.214000000000006 351.20399999999995 32.45100000000001 350.49399999999997 L 36.04800000000001 350.49399999999997 C 35.42300000000001 352.928 33.528000000000006 354.154 30.84800000000001 354.154 C 27.55300000000001 354.176 25.33400000000001 351.957 25.33400000000001 348.534 z M 29.068 347.436 L 32.471000000000004 347.436 C 32.406000000000006 346.144 31.696000000000005 345.476 30.813000000000002 345.476 C 29.779000000000003 345.476 29.219 346.208 29.068 347.436 z M 40.462 345.066 L 40.527 345.066 C 41.302 343.58 42.315 343.02 43.585 343.02 C 43.887 343.02 44.08 343.063 44.188 343.128 L 44.188 346.402 L 44.102000000000004 346.402 C 41.905 346.014 40.602000000000004 347.048 40.602000000000004 349.46 L 40.602000000000004 353.897 L 36.854000000000006 353.897 L 36.854000000000006 343.257 L 40.40800000000001 343.257 L 40.40800000000001 345.057 z" stroke-linecap="round" />
</g>
		<g transform="matrix(1 0 0 1 44.7 1.99)"  >
<path style="stroke: none; stroke-width: 1; stroke-dasharray: none; stroke-linecap: butt; stroke-dashoffset: 0; stroke-linejoin: miter; stroke-miterlimit: 4; fill: rgb(0,0,0); fill-rule: nonzero; opacity: 1;" vector-effect="non-scaling-stroke"  transform=" translate(-49.7, -350.19)" d="M 44.62 353.897 L 48.217 353.897 C 48.347 354.349 48.82 354.80199999999996 49.725 354.80199999999996 C 50.931000000000004 354.80199999999996 51.34 354.04799999999994 51.34 352.95 L 51.34 352.175 L 51.254000000000005 352.175 C 50.651 352.875 49.876000000000005 353.38100000000003 48.691 353.38100000000003 C 46.386 353.38100000000003 44.405 351.68100000000004 44.405 348.36300000000006 C 44.405 345.30500000000006 46.042 342.93500000000006 48.519 342.93500000000006 C 49.939 342.93500000000006 50.824 343.51700000000005 51.384 344.42100000000005 L 51.449 344.42100000000005 L 51.449 343.25800000000004 L 55 343.25800000000004 L 55 352.47600000000006 C 55 354.17600000000004 54.397 355.51300000000003 53.514 356.28800000000007 C 52.588 357.12800000000004 51.254000000000005 357.4510000000001 49.744 357.4510000000001 C 46.944 357.4510000000001 44.964 356.28800000000007 44.618 353.8970000000001 z M 51.489999999999995 348.167 C 51.489999999999995 346.832 50.864999999999995 345.767 49.766999999999996 345.767 C 48.711999999999996 345.767 48.044 346.715 48.044 348.167 C 48.044 349.587 48.711999999999996 350.62199999999996 49.766999999999996 350.62199999999996 C 50.864999999999995 350.62199999999996 51.489999999999995 349.56699999999995 51.489999999999995 348.167 z" stroke-linecap="round" />
</g>
</g>
</g>
</svg>